<svg xmlns="http://www.w3.org/2000/svg" xmlns:xlink="http://www.w3.org/1999/xlink" width="734.75" height="471.2" viewBox="0 0 734.75 471.2"><defs><linearGradient id="a" x1="368.01" y1="400.89" x2="366.25" y2="143.89" gradientUnits="userSpaceOnUse"><stop offset="0" stop-color="#fafafa"/><stop offset="1" stop-color="#e1eef1"/></linearGradient><linearGradient id="b" x1="150.18" y1="356.68" x2="312.95" y2="446.28" gradientUnits="userSpaceOnUse"><stop offset="0" stop-color="#057cb0"/><stop offset="0.44" stop-color="#17548d"/><stop offset="0.79" stop-color="#223a77"/><stop offset="1" stop-color="#26316f"/></linearGradient><linearGradient id="c" x1="338.14" y1="327.14" x2="537.88" y2="443.01" gradientUnits="userSpaceOnUse"><stop offset="0" stop-color="#f09920"/><stop offset="0.06" stop-color="#ec9021"/><stop offset="0.29" stop-color="#de7324"/><stop offset="0.52" stop-color="#d55e25"/><stop offset="0.74" stop-color="#cf5127"/><stop offset="0.95" stop-color="#cd4d27"/></linearGradient></defs><path d="M100.94,453.2S18,438.67,2.3,343.52C-11.67,259.1,38.86,191.69,132.86,176c0,0,5.4-94.48,115.92-97.68,0,0,18.66-64.46,109.92-77,88.42-12.19,134.4,67,134.4,67S406.35,91.91,358.22,179.6c0,0,58.71-73.62,166.8-75.84,116.26-2.4,175.26,71.56,198,130.56,30.62,79.49-.28,191.44-74.16,218.88l-43.44-58.32s-33.73-151.7-259.68-63.12C345.74,331.76,142.7,245.9,100.94,453.2Z" fill="url(#a)"/><path d="M346.22,324.8s-5,45.52-16.49,59.15c-4.57,5.41-9.11,4.95-16.87-3.71-15.25-17-44-25.05-64.08-24.72-43.62.71-68.32,26.61-79.68,52.08-13.67,30.62-7.68,63.36-7.68,63.36H97.58s-3.66-23.53,2.16-53c3.69-18.72,11.67-40.33,24.24-58.32,51.54-73.8,124.8-69.6,124.8-69.6S303,287.12,346.22,324.8Z" fill="url(#b)"/><path d="M300.14,471s-11.31-66.49,33.6-130.56c23-32.77,68.49-74,138.24-74.16,70.56-.19,118.5,39.83,142.08,74.16C659.82,407,647.66,471,647.66,471H576.14s9.64-39.31-12.72-77.52c-16.28-27.81-45.5-52.84-91.2-53-43.48-.2-74.28,27.68-88.8,53-19.92,34.78-12,77.77-12,77.76Z" fill="url(#c)"/></svg>